<svg xmlns="http://www.w3.org/2000/svg" version="1.1" xmlns:xlink="http://www.w3.org/1999/xlink" xmlns:svgjs="http://svgjs.dev/svgjs" width="2000" height="1568" viewBox="0 0 2000 1568"><g transform="matrix(1,0,0,1,-1.5182088314485327,0.634817813765153)"><svg viewBox="0 0 315 247" data-background-color="#000000" preserveAspectRatio="xMidYMid meet" height="1568" width="2000" xmlns="http://www.w3.org/2000/svg" xmlns:xlink="http://www.w3.org/1999/xlink"><g id="tight-bounds" transform="matrix(1,0,0,1,0.23911789095313907,-0.09999999999999432)"><svg viewBox="0 0 314.5217642180937 247.2" height="247.2" width="314.5217642180937"><g><svg viewBox="0 0 395.52 310.8609804573116" height="247.2" width="314.5217642180937"><g transform="matrix(1,0,0,1,0,231.0900379073414)"><svg viewBox="0 0 395.52 79.77094254997016" height="79.77094254997016" width="395.52"><g id="textblocktransform"><svg viewBox="0 0 395.52 79.77094254997016" height="79.77094254997016" width="395.52" id="textblock"><g><svg viewBox="0 0 395.52 44.914149253731345" height="44.914149253731345" width="395.52"><g transform="matrix(1,0,0,1,0,0)"><svg width="395.52" viewBox="0 -29.5 401.98 45.65" height="44.914149253731345" data-palette-color="#ffffff"><path d="M1.5 0L0 0 0-29.5 1.5-29.5 1.5 0ZM7.5 0L3 0 3-29.5 7.5-29.5 7.5 0ZM10.5 0L9 0 9-29.5 10.5-29.5 10.5 0ZM21 0L16.5 0 16.5-29.5 21-29.5 21 0ZM24 0L22.5 0 22.5-29.5 24-29.5 24 0ZM9.6 15.95L9.6 14.85 11.9 14.85 11.9 5.45 9.75 5.45 9.75 4.35 15.5 4.35 15.5 5.45 13.2 5.45 13.2 14.85 15.6 14.85 15.6 15.95 9.6 15.95ZM27 0L25.5 0 25.5-29.5 27-29.5 27 0ZM34.5 0L33 0 33-29.5 34.5-29.5 34.5 0ZM37.5 0L36 0 36-29.5 37.5-29.5 37.5 0ZM45 0L43.5 0 43.5-29.5 45-29.5 45 0ZM52.5 0L51 0 51-29.5 52.5-29.5 52.5 0ZM58.5 0L54 0 54-29.5 58.5-29.5 58.5 0ZM64.5 0L60 0 60-29.5 64.5-29.5 64.5 0ZM67.5 0L66 0 66-29.5 67.5-29.5 67.5 0ZM75 0L73.5 0 73.5-29.5 75-29.5 75 0ZM78 0L76.5 0 76.5-29.5 78-29.5 78 0ZM53.15 16.15L53.15 16.15Q51.9 16.15 50.95 15.6L50.95 15.6Q50 15 49.45 14L49.45 14Q48.9 13 48.9 11.7L48.9 11.7Q48.9 10.45 49.45 9.45L49.45 9.45Q50 8.45 50.95 7.85L50.95 7.85Q51.9 7.3 53.15 7.3L53.15 7.3Q54.15 7.3 55 7.7L55 7.7Q55.8 8.1 56.35 8.85L56.35 8.85 55.5 9.7 55.4 9.8 55.3 9.7Q55.3 9.55 55.2 9.4L55.2 9.4Q55.15 9.3 54.95 9.1L54.95 9.1Q54.55 8.75 54.1 8.6L54.1 8.6Q53.6 8.4 53 8.4L53 8.4Q52.25 8.4 51.65 8.8L51.65 8.8Q51 9.2 50.65 9.95L50.65 9.95Q50.25 10.65 50.25 11.6L50.25 11.6Q50.25 12.55 50.65 13.35L50.65 13.35Q51.05 14.1 51.7 14.5L51.7 14.5Q52.4 14.95 53.2 14.95L53.2 14.95Q54.5 14.95 55.45 13.9L55.45 13.9 56.2 14.8Q54.95 16.15 53.15 16.15ZM81 0L79.5 0 79.5-29.5 81-29.5 81 0ZM88.5 0L87 0 87-29.5 88.5-29.5 88.5 0ZM91.5 0L90 0 90-29.5 91.5-29.5 91.5 0ZM99 0L97.5 0 97.5-29.5 99-29.5 99 0ZM106.5 0L105 0 105-29.5 106.5-29.5 106.5 0ZM112.5 0L108 0 108-29.5 112.5-29.5 112.5 0ZM115.5 0L114 0 114-29.5 115.5-29.5 115.5 0ZM121.5 0L117 0 117-29.5 121.5-29.5 121.5 0ZM129 0L127.5 0 127.5-29.5 129-29.5 129 0ZM132 0L130.5 0 130.5-29.5 132-29.5 132 0ZM106.9 16.15L106.9 16.15Q105 16.15 103.9 15L103.9 15Q102.75 13.85 102.75 11.75L102.75 11.75Q102.75 10.35 103.3 9.3L103.3 9.3Q103.8 8.3 104.7 7.8L104.7 7.8Q105.55 7.25 106.65 7.25L106.65 7.25Q108.2 7.25 109.15 8.25L109.15 8.25Q110.09 9.3 110.09 11.3L110.09 11.3Q110.09 11.5 110.09 11.9L110.09 11.9 104.05 11.9Q104.09 13.45 104.9 14.25L104.9 14.25Q105.7 15.05 106.95 15.05L106.95 15.05Q108.3 15.05 109.15 14.1L109.15 14.1 109.9 14.85Q108.8 16.15 106.9 16.15ZM104.09 10.85L108.75 10.85Q108.75 9.65 108.15 8.95L108.15 8.95Q107.55 8.25 106.55 8.25L106.55 8.25Q105.65 8.25 104.95 8.9L104.95 8.9Q104.25 9.55 104.09 10.85L104.09 10.85ZM134.99 0L133.49 0 133.49-29.5 134.99-29.5 134.99 0ZM142.49 0L140.99 0 140.99-29.5 142.49-29.5 142.49 0ZM145.49 0L143.99 0 143.99-29.5 145.49-29.5 145.49 0ZM152.99 0L151.49 0 151.49-29.5 152.99-29.5 152.99 0ZM160.49 0L158.99 0 158.99-29.5 160.49-29.5 160.49 0ZM166.49 0L161.99 0 161.99-29.5 166.49-29.5 166.49 0ZM169.49 0L167.99 0 167.99-29.5 169.49-29.5 169.49 0ZM172.49 0L170.99 0 170.99-29.5 172.49-29.5 172.49 0ZM175.49 0L173.99 0 173.99-29.5 175.49-29.5 175.49 0ZM185.99 0L181.49 0 181.49-29.5 185.99-29.5 185.99 0ZM163.04 16L159.54 11.7 158.44 12.75 158.44 15.95 157.09 15.95 157.09 3.6 158.59 3.6 158.59 3.7Q158.49 3.85 158.44 3.95L158.44 3.95Q158.44 4.1 158.44 4.4L158.44 4.4 158.44 11.35 162.69 7.4Q163.14 7.5 163.69 7.5L163.69 7.5 164.14 7.5 160.59 10.9 164.74 15.95 163.04 16ZM188.99 0L187.49 0 187.49-29.5 188.99-29.5 188.99 0ZM196.49 0L194.99 0 194.99-29.5 196.49-29.5 196.49 0ZM199.49 0L197.99 0 197.99-29.5 199.49-29.5 199.49 0ZM206.99 0L205.49 0 205.49-29.5 206.99-29.5 206.99 0ZM214.49 0L212.99 0 212.99-29.5 214.49-29.5 214.49 0ZM217.49 0L215.99 0 215.99-29.5 217.49-29.5 217.49 0ZM220.49 0L218.99 0 218.99-29.5 220.49-29.5 220.49 0ZM226.49 0L221.99 0 221.99-29.5 226.49-29.5 226.49 0ZM229.49 0L227.99 0 227.99-29.5 229.49-29.5 229.49 0ZM239.99 0L235.49 0 235.49-29.5 239.99-29.5 239.99 0ZM211.19 15.95L211.19 7.45 212.49 7.45 212.49 8.95Q212.99 8.2 213.74 7.7L213.74 7.7Q214.49 7.25 215.34 7.25L215.34 7.25Q216.49 7.25 217.19 8.1L217.19 8.1Q217.84 9 217.84 10.8L217.84 10.8 217.84 15.95 216.54 15.95 216.54 10.85Q216.54 9.55 216.14 9L216.14 9Q215.69 8.4 214.99 8.4L214.99 8.4Q214.39 8.4 213.84 8.75L213.84 8.75Q213.24 9.1 212.84 9.7L212.84 9.7Q212.49 10.3 212.49 11.05L212.49 11.05 212.49 15.95 211.19 15.95ZM242.99 0L241.49 0 241.49-29.5 242.99-29.5 242.99 0ZM250.49 0L248.99 0 248.99-29.5 250.49-29.5 250.49 0ZM253.49 0L251.99 0 251.99-29.5 253.49-29.5 253.49 0ZM260.99 0L259.49 0 259.49-29.5 260.99-29.5 260.99 0ZM268.49 0L266.99 0 266.99-29.5 268.49-29.5 268.49 0ZM271.49 0L269.99 0 269.99-29.5 271.49-29.5 271.49 0ZM277.49 0L272.99 0 272.99-29.5 277.49-29.5 277.49 0ZM280.49 0L278.99 0 278.99-29.5 280.49-29.5 280.49 0ZM290.99 0L286.49 0 286.49-29.5 290.99-29.5 290.99 0ZM293.99 0L292.49 0 292.49-29.5 293.99-29.5 293.99 0ZM265.69 15.95L265.69 14.85 267.89 14.85 267.89 8.55 265.79 8.55 265.79 7.45 269.19 7.45 269.19 14.85 271.19 14.85 271.19 15.95 265.69 15.95ZM268.49 5.65L268.49 5.65Q268.09 5.65 267.79 5.4L267.79 5.4Q267.54 5.1 267.54 4.7L267.54 4.7Q267.54 4.3 267.79 4.05L267.79 4.05Q268.04 3.75 268.49 3.75L268.49 3.75Q268.84 3.75 269.14 4.05L269.14 4.05Q269.44 4.35 269.44 4.7L269.44 4.7Q269.44 5.1 269.14 5.4L269.14 5.4Q268.84 5.65 268.49 5.65ZM296.99 0L295.49 0 295.49-29.5 296.99-29.5 296.99 0ZM304.49 0L302.99 0 302.99-29.5 304.49-29.5 304.49 0ZM307.49 0L305.99 0 305.99-29.5 307.49-29.5 307.49 0ZM314.99 0L313.49 0 313.49-29.5 314.99-29.5 314.99 0ZM322.49 0L320.99 0 320.99-29.5 322.49-29.5 322.49 0ZM325.49 0L323.99 0 323.99-29.5 325.49-29.5 325.49 0ZM331.49 0L326.99 0 326.99-29.5 331.49-29.5 331.49 0ZM337.49 0L332.99 0 332.99-29.5 337.49-29.5 337.49 0ZM344.99 0L343.49 0 343.49-29.5 344.99-29.5 344.99 0ZM347.99 0L346.49 0 346.49-29.5 347.99-29.5 347.99 0ZM320.84 15.95L320.84 8.5 318.99 8.5 318.99 7.45 320.84 7.45 320.84 6.75Q320.84 5.1 321.69 4.3L321.69 4.3Q322.54 3.5 323.99 3.5L323.99 3.5Q324.79 3.5 325.49 3.75L325.49 3.75Q326.19 4.05 326.63 4.65L326.63 4.65 325.94 5.65 325.79 5.8 325.69 5.7Q325.69 5.65 325.69 5.55L325.69 5.55Q325.63 5.45 325.59 5.3L325.59 5.3Q325.49 5.15 325.34 5.05L325.34 5.05Q325.09 4.8 324.79 4.65L324.79 4.65Q324.49 4.55 323.99 4.55L323.99 4.55Q323.13 4.55 322.63 5.1L322.63 5.1Q322.13 5.6 322.13 6.75L322.13 6.75 322.13 7.45 324.94 7.45 324.94 8.5 322.13 8.5 322.13 15.95 320.84 15.95ZM350.98 0L349.48 0 349.48-29.5 350.98-29.5 350.98 0ZM358.48 0L356.98 0 356.98-29.5 358.48-29.5 358.48 0ZM361.48 0L359.98 0 359.98-29.5 361.48-29.5 361.48 0ZM368.98 0L367.48 0 367.48-29.5 368.98-29.5 368.98 0ZM376.48 0L374.98 0 374.98-29.5 376.48-29.5 376.48 0ZM382.48 0L377.98 0 377.98-29.5 382.48-29.5 382.48 0ZM385.48 0L383.98 0 383.98-29.5 385.48-29.5 385.48 0ZM391.48 0L386.98 0 386.98-29.5 391.48-29.5 391.48 0ZM398.98 0L397.48 0 397.48-29.5 398.98-29.5 398.98 0ZM401.98 0L400.48 0 400.48-29.5 401.98-29.5 401.98 0ZM376.88 16.15L376.88 16.15Q374.98 16.15 373.88 15L373.88 15Q372.73 13.85 372.73 11.75L372.73 11.75Q372.73 10.35 373.28 9.3L373.28 9.3Q373.78 8.3 374.68 7.8L374.68 7.8Q375.53 7.25 376.63 7.25L376.63 7.25Q378.18 7.25 379.13 8.25L379.13 8.25Q380.08 9.3 380.08 11.3L380.08 11.3Q380.08 11.5 380.08 11.9L380.08 11.9 374.03 11.9Q374.08 13.45 374.88 14.25L374.88 14.25Q375.68 15.05 376.93 15.05L376.93 15.05Q378.28 15.05 379.13 14.1L379.13 14.1 379.88 14.85Q378.78 16.15 376.88 16.15ZM374.08 10.85L378.73 10.85Q378.73 9.65 378.13 8.95L378.13 8.95Q377.53 8.25 376.53 8.25L376.53 8.25Q375.63 8.25 374.93 8.9L374.93 8.9Q374.23 9.55 374.08 10.85L374.08 10.85Z" opacity="1" transform="matrix(1,0,0,1,0,0)" fill="#ffffff" class="wordmark-text-0" data-fill-palette-color="primary" id="text-0"></path></svg></g></svg></g><g transform="matrix(1,0,0,1,0,55.51730195295523)"><svg viewBox="0 0 395.52 24.25364059701493" height="24.25364059701493" width="395.52"><g transform="matrix(1,0,0,1,0,0)"><svg width="395.52" viewBox="3.42 -31.25 564.5500000000001 34.62" height="24.25364059701493" data-palette-color="#ffffff"><path d="M3.42 0L3.42-3.91 10.25-3.91 10.25-26.49 3.66-26.49 3.66-30.4 22.58-30.4 22.58-26.49 15.8-26.49 15.8-3.91 22.34-3.91 22.34 0 3.42 0ZM17.55-5.37L17.55-24.78 24.32-24.78 24.32-29.17 25.29-29.17 25.29-23.85 18.53-23.85 18.53-5.37 17.55-5.37ZM5.13-23.85L5.13-24.78 9.23-24.78 9.23-23.85 5.13-23.85ZM4.88 1.71L24.1 1.71 24.1-2.54 25.07-2.54 25.07 2.64 4.88 2.64 4.88 1.71ZM257.27-15.19L257.27-15.19Q257.27-17.21 257.79-19.19 258.32-21.17 259.38-22.95 260.44-24.73 262.03-26.26 263.61-27.78 265.74-28.89 267.86-30 270.54-30.63 273.21-31.25 276.41-31.25L276.41-31.25Q278.12-31.25 279.8-30.98 281.49-30.71 283.04-30.24 284.59-29.76 285.97-29.08 287.34-28.39 288.42-27.56L288.42-27.56 288.42-30.4 293.96-30.4 293.96-21.61 288.42-21.61Q287.64-22.85 286.37-23.91 285.1-24.98 283.49-25.73 281.88-26.49 279.97-26.92 278.07-27.34 276.02-27.34L276.02-27.34Q272.79-27.34 270.41-26.32 268.03-25.29 266.47-23.6 264.91-21.9 264.14-19.71 263.37-17.53 263.37-15.19L263.37-15.19Q263.37-12.55 264.35-10.34 265.32-8.13 267.07-6.54 268.81-4.96 271.23-4.06 273.65-3.17 276.55-3.17L276.55-3.17Q279.19-3.17 281.34-3.69 283.49-4.2 285.17-5.16 286.86-6.13 288.09-7.52 289.32-8.91 290.15-10.64L290.15-10.64 293.91-8.11Q291.64-3.76 287.28-1.51 282.93 0.73 276.33 0.73L276.33 0.73Q272.18 0.73 268.69-0.49 265.2-1.71 262.66-3.86 260.12-6.01 258.69-8.91 257.27-11.82 257.27-15.19ZM289.88-18.97L289.88-19.9 295.72-19.9 295.72-29.15 296.7-29.15 296.7-18.97 289.88-18.97ZM265.13-15.21L265.13-15.21Q265.13-17.48 265.93-19.38 266.74-21.29 268.19-22.68 269.64-24.07 271.66-24.85 273.67-25.63 276.11-25.63L276.11-25.63Q279.31-25.63 281.74-24.65 284.17-23.66 285.64-21.83L285.64-21.83Q283.51-23.32 281.13-24.01 278.75-24.71 276.02-24.71L276.02-24.71Q273.7-24.71 271.85-23.95 270.01-23.19 268.73-21.91 267.45-20.63 266.78-18.93 266.1-17.24 266.1-15.36L266.1-15.36Q266.1-13.53 266.6-11.95 267.11-10.38 268.19-9.06 269.28-7.74 271.01-6.67 272.74-5.59 275.24-4.79L275.24-4.79Q272.94-5.1 271.07-5.98 269.2-6.86 267.89-8.2 266.57-9.55 265.85-11.32 265.13-13.09 265.13-15.21ZM263.22-1.17L263.22-1.17Q264.4-0.37 265.95 0.31 267.5 0.98 269.22 1.45 270.94 1.93 272.78 2.19 274.62 2.44 276.38 2.44L276.38 2.44Q279.51 2.44 282.33 1.9 285.15 1.37 287.5 0.33 289.86-0.71 291.67-2.23 293.47-3.76 294.57-5.71L294.57-5.71 295.43-5.2Q294.3-3.17 292.45-1.57 290.59 0.02 288.14 1.12 285.68 2.22 282.69 2.8 279.7 3.37 276.33 3.37L276.33 3.37Q274.4 3.37 272.5 3.09 270.6 2.81 268.88 2.23 267.15 1.66 265.7 0.82 264.25-0.02 263.22-1.17ZM528.94 0L528.94-3.91 535.53-3.91 535.53-26.49 528.94-26.49 528.94-30.4 565.24-30.4 565.24-20.87 559.75-20.87 559.75-26.49 541.27-26.49 541.27-16.87 553.52-16.87 553.52-13.82 541.27-13.82 541.27-3.91 559.75-3.91 559.75-9.52 565.24-9.52 565.24 0 528.94 0ZM561.21-18.24L561.21-19.17 567-19.17 567-29.17 567.97-29.17 567.97-18.24 561.21-18.24ZM543.02-18.33L543.02-24.78 558.72-24.78 558.72-23.85 544-23.85 544-18.33 543.02-18.33ZM530.4-23.85L530.4-24.78 534.5-24.78 534.5-23.85 530.4-23.85ZM543.02-5.37L543.02-12.11 555.26-12.11 555.26-15.65 556.23-15.65 556.23-11.18 544-11.18 544-5.37 543.02-5.37ZM530.4 1.71L567 1.71 567-8.15 567.97-8.15 567.97 2.64 530.4 2.64 530.4 1.71Z" opacity="1" transform="matrix(1,0,0,1,0,0)" fill="#ffffff" class="slogan-text-1" data-fill-palette-color="secondary" id="text-1"></path></svg></g></svg></g></svg></g></svg></g><g transform="matrix(1,0,0,1,87.51260654100352,0)"><svg viewBox="0 0 220.49478691799294 220.48688520811754" height="220.48688520811754" width="220.49478691799294"><g><svg xmlns="http://www.w3.org/2000/svg" xmlns:xlink="http://www.w3.org/1999/xlink" version="1.1" x="0" y="0" viewBox="1.4843013312862492 1.4849030727108732 67.0304990500953 67.02809692728913" enable-background="new 0 0 70 70" xml:space="preserve" height="220.48688520811754" width="220.49478691799294" class="icon-icon-0" data-fill-palette-color="accent" id="icon-0"><path d="M60.261 36.502h6.752c0.828 0 1.5-0.672 1.5-1.5 0-0.829-0.672-1.5-1.5-1.5H60.26l7.868-8.709c0.555-0.615 0.507-1.563-0.107-2.119-0.613-0.553-1.563-0.508-2.119 0.108l-9.685 10.72-17.598 0 12.444-12.444 14.428 0.734c0.026 0.001 0.052 0.002 0.077 0.002 0.794 0 1.456-0.623 1.497-1.424 0.042-0.827-0.595-1.532-1.422-1.574l-11.722-0.596 4.776-4.776c0.586-0.585 0.586-1.535 0-2.121s-1.535-0.586-2.121 0l-4.775 4.775-0.596-11.72c-0.042-0.827-0.717-1.468-1.574-1.422-0.827 0.042-1.464 0.747-1.422 1.574l0.732 14.427L36.501 31.377V13.782L47.219 4.1c0.614-0.556 0.662-1.504 0.107-2.119-0.556-0.616-1.505-0.661-2.119-0.108l-8.706 7.865V2.986c0-0.829-0.672-1.5-1.5-1.5-0.829 0-1.5 0.671-1.5 1.5v6.752l-8.709-7.866c-0.616-0.556-1.564-0.507-2.119 0.108-0.555 0.615-0.507 1.563 0.108 2.119l10.72 9.682v17.6L21.056 18.936 21.79 4.509c0.042-0.827-0.595-1.532-1.422-1.574-0.825-0.057-1.532 0.594-1.574 1.422l-0.596 11.72-4.775-4.775c-0.586-0.586-1.535-0.586-2.121 0-0.586 0.585-0.586 1.535 0 2.121l4.775 4.776L4.356 18.795c-0.827 0.042-1.464 0.747-1.422 1.574 0.041 0.801 0.703 1.424 1.497 1.424 0.026 0 0.052 0 0.078-0.002l14.427-0.734 12.443 12.444-17.598 0L4.099 22.782c-0.556-0.616-1.504-0.663-2.119-0.108-0.615 0.556-0.663 1.504-0.108 2.119l7.866 8.708H2.985c-0.828 0-1.5 0.671-1.5 1.5 0 0.828 0.671 1.5 1.5 1.5h6.752l-7.866 8.707c-0.555 0.615-0.507 1.563 0.108 2.119 0.287 0.259 0.646 0.387 1.005 0.387 0.41 0 0.817-0.167 1.114-0.494l9.683-10.719h17.596L18.935 48.943 4.509 48.21c-0.827-0.036-1.533 0.594-1.574 1.422-0.042 0.827 0.595 1.532 1.422 1.574l11.72 0.596-4.774 4.774c-0.586 0.586-0.586 1.535 0 2.121 0.293 0.293 0.677 0.439 1.061 0.439s0.768-0.146 1.061-0.439l4.775-4.774 0.595 11.721c0.041 0.802 0.703 1.424 1.497 1.424 0.026 0 0.052-0.001 0.078-0.002 0.827-0.042 1.464-0.747 1.422-1.574l-0.733-14.427 12.445-12.445v17.6L22.781 65.9c-0.615 0.556-0.663 1.504-0.108 2.118 0.296 0.328 0.704 0.495 1.114 0.495 0.358 0 0.718-0.128 1.005-0.387l8.709-7.865v6.752c0 0.828 0.671 1.5 1.5 1.5 0.828 0 1.5-0.672 1.5-1.5v-6.751l8.706 7.864c0.287 0.259 0.646 0.387 1.006 0.387 0.409 0 0.817-0.167 1.113-0.494 0.555-0.615 0.507-1.563-0.107-2.119l-10.718-9.682V38.624l12.441 12.442L48.21 65.491c-0.042 0.827 0.595 1.532 1.422 1.574 0.026 0.001 0.052 0.002 0.077 0.002 0.794 0 1.456-0.622 1.497-1.424l0.596-11.719 4.773 4.774c0.293 0.293 0.677 0.439 1.061 0.439s0.768-0.146 1.061-0.439c0.586-0.586 0.586-1.535 0-2.121l-4.775-4.775 11.723-0.596c0.827-0.042 1.464-0.747 1.422-1.574s-0.726-1.444-1.574-1.422l-14.429 0.732L38.621 36.502h17.597l9.682 10.718c0.296 0.327 0.704 0.494 1.113 0.494 0.359 0 0.719-0.128 1.006-0.387 0.614-0.556 0.662-1.504 0.107-2.119L60.261 36.502z" fill="#ffffff" data-fill-palette-color="accent"></path></svg></g></svg></g><g></g></svg></g><defs></defs></svg><rect width="314.5217642180937" height="247.2" fill="none" stroke="none" visibility="hidden"></rect></g></svg></g></svg>